<svg width="83" height="24" viewBox="0 0 83 24" fill="none" xmlns="http://www.w3.org/2000/svg">
<path d="M1.40544 17V5.625H5.12419C6.35856 5.625 7.28565 5.88021 7.90544 6.39062C8.53044 6.90104 8.84294 7.65625 8.84294 8.65625C8.84294 9.1875 8.6919 9.65885 8.38981 10.0703C8.08773 10.4766 7.67627 10.7917 7.15544 11.0156C7.77002 11.1875 8.2544 11.5156 8.60856 12C8.96794 12.4792 9.14762 13.0521 9.14762 13.7188C9.14762 14.7396 8.8169 15.5417 8.15544 16.125C7.49398 16.7083 6.55908 17 5.35075 17H1.40544ZM2.90544 11.6797V15.7734H5.382C6.07992 15.7734 6.6294 15.5938 7.03044 15.2344C7.43669 14.8698 7.63981 14.3698 7.63981 13.7344C7.63981 12.3646 6.89502 11.6797 5.40544 11.6797H2.90544ZM2.90544 10.4766H5.17106C5.82731 10.4766 6.35075 10.3125 6.74137 9.98438C7.13721 9.65625 7.33512 9.21094 7.33512 8.64844C7.33512 8.02344 7.15283 7.57031 6.78825 7.28906C6.42367 7.0026 5.86898 6.85938 5.12419 6.85938H2.90544V10.4766ZM12.3177 11.4609H14.5131C15.4714 11.4714 16.2292 11.7214 16.7865 12.2109C17.3438 12.7005 17.6224 13.3646 17.6224 14.2031C17.6224 15.0469 17.336 15.724 16.7631 16.2344C16.1901 16.7448 15.4193 17 14.4506 17H10.8724V8.54688H12.3177V11.4609ZM20.6381 17H19.1849V8.54688H20.6381V17ZM12.3177 12.6406V15.8203H14.4662C15.0079 15.8203 15.4271 15.6823 15.724 15.4062C16.0209 15.125 16.1693 14.7422 16.1693 14.2578C16.1693 13.7891 16.0235 13.4062 15.7318 13.1094C15.4454 12.8073 15.0417 12.651 14.5209 12.6406H12.3177ZM28.2222 8.54688H29.6676V17H28.2222V10.8359L24.3238 17H22.8785V8.54688H24.3238V14.7188L28.2222 8.54688ZM28.6129 5.46875C28.6129 6.09896 28.3967 6.60677 27.9644 6.99219C27.5374 7.3724 26.9749 7.5625 26.2769 7.5625C25.579 7.5625 25.0139 7.36979 24.5816 6.98438C24.1493 6.59896 23.9332 6.09375 23.9332 5.46875H25.1129C25.1129 5.83333 25.2118 6.11979 25.4097 6.32812C25.6077 6.53125 25.8967 6.63281 26.2769 6.63281C26.6415 6.63281 26.9254 6.53125 27.1285 6.32812C27.3368 6.125 27.441 5.83854 27.441 5.46875H28.6129ZM37.8611 9.71875H35.0252V17H33.5799V9.71875H30.7986V8.54688H37.8611V9.71875ZM44.3281 8.54688H45.7734V17H44.3281V10.8359L40.4297 17H38.9844V8.54688H40.4297V14.7188L44.3281 8.54688Z" fill="#41522E"/>
<path d="M68 21H64C63.4696 21 62.9609 20.7893 62.5858 20.4142C62.2107 20.0391 62 19.5304 62 19V5C62 4.46957 62.2107 3.96086 62.5858 3.58579C62.9609 3.21071 63.4696 3 64 3H68" stroke="#41522E" stroke-width="2.2" stroke-linecap="round" stroke-linejoin="round"/>
<path d="M75 17L80 12L75 7" stroke="#41522E" stroke-width="2.2" stroke-linecap="round" stroke-linejoin="round"/>
<path d="M80 12H68" stroke="#41522E" stroke-width="2.2" stroke-linecap="round" stroke-linejoin="round"/>
</svg>
