<svg height='300px' width='300px'  fill="#0b0b0c" xmlns="http://www.w3.org/2000/svg" xmlns:xlink="http://www.w3.org/1999/xlink" version="1.1" x="0px" y="0px" viewBox="0 0 100 100" style="enable-background:new 0 0 100 100;" xml:space="preserve"><g><path d="M71.6,11c-10,0-17,7.5-21.6,13.7C45.4,18.5,38.4,11,28.4,11C15.9,11,5.8,21.1,5.8,33.6c0,3,0.6,5.8,1.7,8.5   C9.7,47.7,23.7,61.3,36,73.4c5.8,5.6,10.7,10.5,13.2,13.3l0.7,0.8l0.7-0.8c2.5-2.8,7.5-7.7,13.2-13.3c12.3-12,26.3-25.7,28.6-31.2   c1.1-2.7,1.7-5.6,1.7-8.5C94.2,21.1,84.1,11,71.6,11z M90.7,41.4c-2.1,5.1-17.1,19.8-28.1,30.5c-5.3,5.1-9.9,9.6-12.6,12.6   c-2.7-2.9-7.3-7.4-12.6-12.6c-11-10.7-26-25.4-28.1-30.5c-1-2.5-1.5-5.1-1.5-7.8C7.8,22.3,17,13,28.4,13c9.7,0,16.5,8,20.8,14   l0.8,1.1l0.8-1.1c4.3-6,11.1-14,20.8-14c11.4,0,20.6,9.3,20.6,20.6C92.2,36.3,91.7,38.9,90.7,41.4z"></path></g></svg>